<svg xmlns="http://www.w3.org/2000/svg" xmlns:xlink="http://www.w3.org/1999/xlink" width="1280" zoomAndPan="magnify" viewBox="0 0 960 599.999999" height="800" preserveAspectRatio="xMidYMid meet" version="1.0"><defs><clipPath id="e71130687b"><path d="M 358 380.84375 L 616 380.84375 L 616 419.988281 L 358 419.988281 Z M 358 380.84375 " clip-rule="nonzero"/></clipPath><clipPath id="9922a7dcb4"><path d="M 359 354.695312 L 621.5625 354.695312 L 621.5625 419.988281 L 359 419.988281 Z M 359 354.695312 " clip-rule="nonzero"/></clipPath><clipPath id="fc31b8235f"><path d="M 330.234375 355 L 592 355 L 592 393 L 330.234375 393 Z M 330.234375 355 " clip-rule="nonzero"/></clipPath></defs><rect x="-96" width="1152" fill="#ffffff" y="-60" height="719.999999" fill-opacity="1"/><rect x="-96" width="1152" fill="#ffffff" y="-60" height="719.999999" fill-opacity="1"/><rect x="-96" width="1152" fill="#ffffff" y="-60" height="719.999999" fill-opacity="1"/><g clip-path="url(#e71130687b)"><path fill="#dd8d16" d="M 403.375 419.988281 L 359.445312 383.132812 C 357.246094 381.128906 359.027344 380.808594 361.1875 380.894531 L 551.765625 382.472656 L 615.726562 402.953125 L 403.375 419.988281 " fill-opacity="1" fill-rule="nonzero"/></g><path fill="#f3eae0" d="M 360.523438 356.820312 C 363.808594 368.132812 364.414062 378.972656 361.601562 381.472656 C 361.601562 381.472656 400.664062 416.441406 409.359375 418.765625 L 414.035156 386.734375 L 360.523438 356.820312 " fill-opacity="1" fill-rule="nonzero"/><g clip-path="url(#9922a7dcb4)"><path fill="#dd8d16" d="M 360.027344 357.152344 L 402.460938 387.464844 C 402.707031 387.585938 402.9375 387.71875 403.046875 387.917969 C 407.226562 395.648438 406.769531 400.613281 407.089844 405.054688 C 407.710938 414.660156 402.296875 417.746094 402.296875 417.746094 L 403.703125 419.546875 L 614.445312 408 C 619.4375 407.84375 619.460938 406.433594 619.804688 404.265625 C 620.132812 402.183594 623.5625 379.238281 618.375 376.253906 C 615.886719 374.824219 545.609375 360.96875 545.523438 360.976562 L 359.859375 354.992188 C 358.765625 355.113281 358.941406 356.988281 360.027344 357.152344 " fill-opacity="1" fill-rule="nonzero"/></g><g clip-path="url(#fc31b8235f)"><path fill="#451a45" d="M 379.292969 392.671875 L 331.363281 358.527344 C 330.398438 358.367188 330.464844 356.695312 331.453125 356.664062 L 527.683594 355.882812 L 591.640625 375.96875 L 379.292969 392.671875 " fill-opacity="1" fill-rule="nonzero"/></g><path fill="#f3eae0" d="M 334.972656 333.105469 C 338.253906 344.199219 337.785156 355.332031 334.972656 357.785156 C 334.972656 357.785156 376.578125 389.195312 385.273438 391.476562 L 389.953125 360.058594 L 334.972656 333.105469 " fill-opacity="1" fill-rule="nonzero"/><path fill="#451a45" d="M 334.226562 332.886719 L 377.890625 362.148438 C 378.132812 362.269531 378.367188 362.394531 378.476562 362.59375 C 382.65625 370.175781 382.199219 375.046875 382.515625 379.398438 C 383.136719 388.820312 377.867188 391.621094 377.867188 391.621094 L 379.292969 392.671875 L 591.667969 380.921875 C 596.660156 380.773438 596.683594 379.390625 597.027344 377.261719 C 597.359375 375.21875 601.539062 349.953125 596.355469 347.027344 C 593.863281 345.625 521.035156 336.167969 520.949219 336.175781 L 334.1875 330.46875 C 333.089844 330.585938 333.136719 332.722656 334.226562 332.886719 " fill-opacity="1" fill-rule="nonzero"/><path fill="#bf3b29" d="M 400 361.488281 L 396.886719 361.625 C 396.691406 361.632812 396.554688 361.785156 396.585938 361.953125 C 398.292969 371.433594 398.839844 381.90625 396.992188 389.980469 C 396.949219 390.167969 397.117188 390.335938 397.328125 390.324219 L 400.511719 390.132812 C 400.660156 390.125 400.785156 390.027344 400.8125 389.898438 C 401.558594 386.324219 401.898438 382.382812 401.898438 378.292969 C 401.898438 372.835938 401.304688 367.136719 400.335938 361.730469 C 400.3125 361.585938 400.164062 361.480469 400 361.488281 Z M 414.242188 360.863281 L 404.699219 361.28125 C 404.5 361.292969 404.359375 361.457031 404.402344 361.632812 C 407.109375 372.226562 407.078125 382.203125 405.058594 389.492188 C 405.007812 389.679688 405.171875 389.855469 405.390625 389.84375 L 415.46875 389.246094 C 415.613281 389.234375 415.734375 389.140625 415.765625 389.015625 C 416.6875 385.308594 416.84375 381.707031 416.84375 377.703125 C 416.84375 371.882812 416.335938 366.945312 414.570312 361.082031 C 414.53125 360.949219 414.394531 360.855469 414.242188 360.863281 Z M 423.476562 360.714844 C 424.488281 366.25 425.117188 372.101562 425.117188 377.703125 C 425.117188 381.488281 424.832031 385.144531 424.195312 388.5 C 424.171875 388.632812 424.046875 388.730469 423.898438 388.742188 L 420.730469 388.929688 C 420.519531 388.941406 420.355469 388.777344 420.394531 388.59375 C 422.054688 380.511719 421.441406 370.21875 419.726562 360.941406 C 419.695312 360.773438 419.835938 360.621094 420.027344 360.609375 L 423.140625 360.472656 C 423.304688 360.46875 423.453125 360.570312 423.476562 360.714844 " fill-opacity="1" fill-rule="nonzero"/><path fill="#bf3b29" d="M 484.625 357.328125 L 481.511719 357.464844 C 481.320312 357.472656 481.179688 357.625 481.210938 357.792969 C 482.921875 367.273438 483.46875 377.746094 481.621094 385.820312 C 481.574219 386.007812 481.742188 386.171875 481.957031 386.160156 L 485.136719 385.972656 C 485.285156 385.960938 485.410156 385.867188 485.4375 385.738281 C 486.1875 382.164062 486.523438 378.222656 486.523438 374.132812 C 486.523438 368.675781 485.929688 362.976562 484.964844 357.570312 C 484.9375 357.425781 484.792969 357.320312 484.625 357.328125 Z M 498.867188 356.703125 L 489.324219 357.121094 C 489.125 357.128906 488.984375 357.296875 489.027344 357.46875 C 491.738281 368.066406 491.703125 378.039062 489.683594 385.328125 C 489.632812 385.519531 489.800781 385.695312 490.019531 385.679688 L 500.09375 385.082031 C 500.238281 385.074219 500.359375 384.976562 500.394531 384.851562 C 501.3125 381.148438 501.472656 377.546875 501.472656 373.542969 C 501.472656 367.71875 500.960938 362.785156 499.195312 356.921875 C 499.15625 356.789062 499.019531 356.695312 498.867188 356.703125 Z M 508.105469 356.554688 C 509.113281 362.085938 509.742188 367.941406 509.742188 373.542969 C 509.742188 377.324219 509.457031 380.980469 508.824219 384.339844 C 508.796875 384.472656 508.671875 384.570312 508.523438 384.578125 L 505.355469 384.765625 C 505.144531 384.78125 504.980469 384.617188 505.019531 384.433594 C 506.679688 376.351562 506.066406 366.058594 504.351562 356.78125 C 504.320312 356.613281 504.464844 356.457031 504.65625 356.449219 L 507.769531 356.3125 C 507.933594 356.304688 508.078125 356.410156 508.105469 356.554688 " fill-opacity="1" fill-rule="nonzero"/><path fill="#bf3b29" d="M 564.117188 352.046875 L 561 352.179688 C 560.808594 352.191406 560.667969 352.34375 560.699219 352.511719 C 562.410156 361.988281 562.957031 372.464844 561.109375 380.539062 C 561.066406 380.726562 561.234375 380.894531 561.445312 380.882812 L 564.628906 380.691406 C 564.777344 380.683594 564.902344 380.585938 564.925781 380.457031 C 565.675781 376.878906 566.015625 372.941406 566.015625 368.851562 C 566.015625 363.394531 565.417969 357.695312 564.453125 352.289062 C 564.425781 352.140625 564.28125 352.035156 564.117188 352.046875 Z M 578.355469 351.421875 L 568.816406 351.839844 C 568.617188 351.847656 568.476562 352.015625 568.519531 352.191406 C 571.226562 362.785156 571.191406 372.757812 569.171875 380.046875 C 569.121094 380.234375 569.289062 380.414062 569.507812 380.402344 L 579.582031 379.800781 C 579.730469 379.789062 579.851562 379.699219 579.882812 379.570312 C 580.804688 375.867188 580.964844 372.265625 580.964844 368.261719 C 580.964844 362.441406 580.449219 357.503906 578.6875 351.636719 C 578.648438 351.507812 578.507812 351.414062 578.355469 351.421875 Z M 587.59375 351.273438 C 588.605469 356.804688 589.230469 362.660156 589.230469 368.261719 C 589.230469 372.042969 588.945312 375.699219 588.3125 379.058594 C 588.289062 379.191406 588.164062 379.289062 588.011719 379.296875 L 584.847656 379.484375 C 584.636719 379.496094 584.472656 379.335938 584.507812 379.152344 C 586.167969 371.070312 585.558594 360.777344 583.84375 351.5 C 583.8125 351.332031 583.953125 351.175781 584.144531 351.167969 L 587.257812 351.03125 C 587.421875 351.023438 587.566406 351.125 587.59375 351.273438 " fill-opacity="1" fill-rule="nonzero"/><path fill="#3e9073" d="M 403.808594 361.183594 C 403.808594 361.183594 364.824219 336.304688 352.398438 327.195312 C 351.378906 326.449219 351.484375 324.875 352.488281 324.832031 L 554.867188 315.074219 L 619.972656 340.480469 L 403.808594 361.183594 " fill-opacity="1" fill-rule="nonzero"/><path fill="#f3eae0" d="M 356.910156 295.300781 C 360.25 309.335938 358.933594 323.148438 356.070312 326.253906 C 356.070312 326.253906 401.046875 357.214844 409.898438 360.097656 L 414.664062 320.355469 L 356.910156 295.300781 " fill-opacity="1" fill-rule="nonzero"/><path fill="#3e9073" d="M 354.726562 294.425781 L 403.128906 320.464844 C 403.375 320.617188 403.613281 320.777344 403.722656 321.027344 C 407.980469 330.621094 407.316406 338.367188 407.636719 343.871094 C 408.273438 355.792969 402.761719 359.621094 402.761719 359.621094 L 404.355469 360.664062 L 620.546875 347.550781 C 625.628906 347.359375 626.378906 345.273438 626.726562 342.585938 C 627.0625 340.003906 629.332031 308.917969 624.054688 305.21875 C 621.519531 303.441406 587.558594 290.414062 574.722656 289.558594 L 354.34375 291.546875 C 353.226562 291.695312 353.675781 293.921875 354.726562 294.425781 " fill-opacity="1" fill-rule="nonzero"/><path fill="#dcd2c9" d="M 598.933594 328.539062 C 598.933594 331.105469 601.050781 333.1875 603.660156 333.1875 C 606.273438 333.1875 608.390625 331.105469 608.390625 328.539062 C 608.390625 325.96875 606.273438 323.886719 603.660156 323.886719 C 601.050781 323.886719 598.933594 325.96875 598.933594 328.539062 Z M 421.992188 338.847656 C 421.992188 341.414062 424.109375 343.492188 426.71875 343.492188 C 429.328125 343.492188 431.445312 341.414062 431.445312 338.847656 C 431.445312 336.277344 429.328125 334.195312 426.71875 334.195312 C 424.109375 334.195312 421.992188 336.277344 421.992188 338.847656 Z M 591.359375 326.308594 C 591.316406 325.578125 590.675781 325.019531 589.929688 325.066406 L 439.195312 334.035156 C 438.453125 334.078125 437.882812 334.710938 437.929688 335.4375 C 437.976562 336.171875 438.613281 336.730469 439.363281 336.683594 L 590.09375 327.714844 C 590.8125 327.675781 591.363281 327.089844 591.363281 326.390625 C 591.363281 326.363281 591.363281 326.335938 591.359375 326.308594 Z M 591.363281 331.207031 C 591.363281 331.902344 590.8125 332.488281 590.09375 332.53125 L 439.363281 341.5 C 438.613281 341.542969 437.976562 340.984375 437.929688 340.253906 C 437.882812 339.539062 438.453125 338.890625 439.195312 338.847656 L 589.929688 329.878906 C 590.675781 329.835938 591.316406 330.390625 591.359375 331.125 C 591.363281 331.152344 591.363281 331.179688 591.363281 331.207031 " fill-opacity="1" fill-rule="nonzero"/><path fill="#451a45" d="M 606.914062 301.425781 L 379.875 321.050781 L 334.960938 285.148438 C 334.449219 284.621094 334.488281 283.875 334.996094 283.8125 C 336.636719 283.621094 558.210938 276.839844 558.210938 276.839844 L 606.914062 301.425781 " fill-opacity="1" fill-rule="nonzero"/><path fill="#f3eae0" d="M 335.800781 265.78125 L 336.597656 284.089844 L 382.242188 319.582031 L 386.863281 304.742188 L 391.886719 297.929688 L 335.800781 265.78125 " fill-opacity="1" fill-rule="nonzero"/><path fill="#451a45" d="M 335.40625 265.78125 L 562.207031 262.425781 L 608.695312 285.917969 C 610.222656 286.410156 611.292969 287.839844 611.382812 289.496094 L 612.042969 303.332031 C 612.160156 305.527344 610.539062 307.390625 608.433594 307.496094 L 379.847656 321.050781 C 380.433594 320.875 383.945312 312.816406 382.824219 302.746094 C 382.6875 301.488281 381.171875 300.085938 381.171875 300.085938 C 381.171875 300.085938 349.503906 276.257812 335.316406 266.722656 C 334.875 266.429688 334.878906 265.8125 335.40625 265.78125 " fill-opacity="1" fill-rule="nonzero"/><path fill="#dd8d16" d="M 403.445312 294.863281 L 391.121094 300.070312 L 344.734375 266.03125 C 344.226562 265.503906 344.269531 264.753906 344.765625 264.695312 C 346.375 264.496094 435.859375 261.746094 435.859375 261.746094 L 403.445312 294.863281 " fill-opacity="1" fill-rule="nonzero"/><path fill="#f3eae0" d="M 346.84375 249.558594 L 347.589844 265.066406 L 393.445312 298.59375 L 398.011719 289.347656 L 396.429688 282.523438 L 346.84375 249.558594 " fill-opacity="1" fill-rule="nonzero"/><path fill="#dd8d16" d="M 345.480469 248.140625 L 569.835938 246.65625 L 615.421875 270.046875 C 616.914062 270.539062 617.964844 271.964844 618.046875 273.621094 L 618.671875 282.789062 C 618.78125 284.984375 617.1875 286.851562 615.117188 286.960938 L 391.09375 300.070312 C 391.664062 299.890625 395.449219 297.027344 394.371094 286.960938 C 394.234375 285.703125 392.75 284.304688 392.75 284.304688 C 392.75 284.304688 355.53125 255.519531 345.550781 249.316406 C 345.109375 249.042969 344.964844 248.171875 345.480469 248.140625 " fill-opacity="1" fill-rule="nonzero"/><path fill="#bf3b29" d="M 617.726562 273.125 C 617.726562 273.617188 617.363281 274.027344 616.894531 274.054688 L 395.835938 286.960938 C 395.351562 286.988281 394.9375 286.59375 394.910156 286.078125 C 394.882812 285.578125 395.253906 285.125 395.742188 285.09375 L 616.800781 272.191406 C 617.285156 272.164062 617.699219 272.558594 617.726562 273.074219 C 617.726562 273.089844 617.726562 273.105469 617.726562 273.125 " fill-opacity="1" fill-rule="nonzero"/><path fill="#bf3b29" d="M 406.96875 281.449219 L 360.207031 245.675781 C 359.273438 245.457031 359.378906 243.351562 360.339844 243.332031 L 566.058594 255.964844 L 614.035156 264.148438 L 406.96875 281.449219 " fill-opacity="1" fill-rule="nonzero"/><path fill="#f3eae0" d="M 367.753906 213.367188 C 370.679688 227.359375 366.535156 241.765625 363.734375 244.800781 C 363.734375 244.800781 402.683594 275.734375 411.089844 278.746094 L 418.144531 240.667969 L 367.753906 213.367188 " fill-opacity="1" fill-rule="nonzero"/><path fill="#bf3b29" d="M 364.933594 214.023438 L 406.351562 243.082031 C 406.585938 243.238281 406.8125 243.402344 406.910156 243.648438 C 410.792969 253.246094 412.277344 260.519531 412.480469 265.992188 C 412.855469 277.839844 406.929688 280.664062 406.929688 280.664062 L 408.058594 280.605469 C 407.417969 281.207031 406.96875 281.449219 406.96875 281.449219 L 613.9375 270.371094 C 618.796875 270.269531 618.855469 268.53125 619.242188 265.863281 C 619.613281 263.308594 622.878906 236.515625 617.90625 232.753906 C 615.515625 230.945312 546.292969 212.925781 546.210938 212.933594 L 364.957031 210.988281 C 363.882812 211.117188 363.878906 213.800781 364.933594 214.023438 " fill-opacity="1" fill-rule="nonzero"/><path fill="#dd8d16" d="M 489.828125 264.535156 L 489.371094 253.550781 C 489.34375 252.902344 488.796875 252.398438 488.152344 252.425781 L 483.214844 252.632812 C 482.570312 252.65625 482.066406 253.207031 482.09375 253.851562 L 482.550781 264.839844 C 482.578125 265.480469 483.125 265.988281 483.769531 265.960938 L 488.707031 265.757812 C 489.351562 265.726562 489.855469 265.179688 489.828125 264.535156 Z M 478.558594 265.003906 L 478.101562 254.019531 C 478.074219 253.375 477.523438 252.871094 476.882812 252.898438 L 471.945312 253.101562 C 471.300781 253.128906 470.792969 253.675781 470.824219 254.320312 L 471.28125 265.308594 C 471.304688 265.953125 471.855469 266.460938 472.5 266.429688 L 477.4375 266.226562 C 478.082031 266.199219 478.585938 265.648438 478.558594 265.003906 Z M 467.214844 265.476562 L 466.757812 254.492188 C 466.730469 253.847656 466.183594 253.34375 465.539062 253.367188 L 460.601562 253.574219 C 459.957031 253.601562 459.449219 254.152344 459.476562 254.796875 L 459.933594 265.78125 C 459.960938 266.425781 460.511719 266.929688 461.15625 266.90625 L 466.09375 266.699219 C 466.738281 266.671875 467.238281 266.121094 467.214844 265.476562 Z M 455.941406 265.945312 L 455.484375 254.960938 C 455.460938 254.316406 454.910156 253.8125 454.265625 253.839844 L 449.328125 254.042969 C 448.683594 254.070312 448.179688 254.621094 448.207031 255.265625 L 448.664062 266.25 C 448.691406 266.894531 449.238281 267.402344 449.882812 267.375 L 454.820312 267.167969 C 455.464844 267.140625 455.96875 266.589844 455.941406 265.945312 Z M 444.847656 266.410156 L 444.394531 255.425781 C 444.367188 254.78125 443.816406 254.273438 443.175781 254.300781 L 438.234375 254.503906 C 437.59375 254.535156 437.085938 255.082031 437.113281 255.726562 L 437.570312 266.710938 C 437.597656 267.359375 438.144531 267.863281 438.789062 267.835938 L 443.726562 267.628906 C 444.371094 267.605469 444.875 267.054688 444.847656 266.410156 Z M 433.578125 266.878906 L 433.121094 255.894531 C 433.097656 255.25 432.546875 254.742188 431.902344 254.769531 L 426.964844 254.976562 C 426.320312 255.003906 425.816406 255.550781 425.84375 256.199219 L 426.300781 267.183594 C 426.328125 267.828125 426.875 268.332031 427.519531 268.304688 L 432.457031 268.101562 C 433.101562 268.074219 433.605469 267.523438 433.578125 266.878906 Z M 536.46875 247.972656 C 534.183594 248.09375 532.402344 249.804688 532.507812 251.769531 L 532.253906 262.605469 C 532.359375 264.570312 534.3125 266.078125 536.597656 265.957031 L 595.730469 262.789062 C 598.015625 262.667969 599.796875 260.957031 599.691406 258.996094 L 599.949219 248.160156 C 599.839844 246.195312 597.886719 244.683594 595.601562 244.808594 Z M 614.171875 233.097656 C 614.691406 233.074219 615.128906 233.472656 615.152344 233.988281 C 615.175781 234.503906 614.777344 234.9375 614.261719 234.964844 C 614.261719 234.964844 614.257812 234.964844 614.257812 234.964844 L 409.847656 244.347656 C 409.328125 244.371094 408.886719 243.972656 408.863281 243.457031 C 408.84375 242.945312 409.238281 242.511719 409.753906 242.480469 C 409.757812 242.480469 409.757812 242.480469 409.761719 242.480469 L 614.171875 233.097656 " fill-opacity="1" fill-rule="nonzero"/><path fill="#3e9073" d="M 418.644531 237.542969 L 376.648438 209.832031 C 376.285156 209.128906 376.507812 208.589844 377.382812 208.570312 L 550.398438 198.171875 L 606.558594 221.667969 L 418.644531 237.542969 " fill-opacity="1" fill-rule="nonzero"/><path fill="#f3eae0" d="M 379.601562 186.917969 C 382.308594 199.457031 382.921875 205.949219 380.394531 208.671875 C 380.394531 208.671875 416.859375 233.214844 424.5 235.902344 L 429.1875 200.597656 L 379.601562 186.917969 " fill-opacity="1" fill-rule="nonzero"/><path fill="#3e9073" d="M 378.257812 186.78125 L 416.988281 206.667969 C 417.195312 206.792969 417.398438 206.921875 417.484375 207.125 C 420.957031 214.84375 420.480469 219.757812 420.679688 224.164062 C 421.050781 233.699219 417.675781 235.5625 417.675781 235.5625 L 418.644531 237.542969 L 600.855469 228.222656 C 605.160156 228.128906 605.203125 226.730469 605.535156 224.585938 C 605.855469 222.523438 610.40625 203.089844 605.988281 200.070312 C 603.867188 198.621094 539.335938 179.996094 539.261719 180.003906 L 378.265625 184.339844 C 377.316406 184.445312 377.324219 186.605469 378.257812 186.78125 " fill-opacity="1" fill-rule="nonzero"/><path fill="#dcd2c9" d="M 536.976562 219.054688 C 536.800781 217 534.824219 216.652344 533.878906 216.484375 L 533.675781 216.449219 C 532.570312 216.238281 531.382812 216.558594 530.789062 217.234375 C 530.4375 217.636719 530.359375 218.1875 530.59375 218.644531 C 530.800781 219.046875 531.210938 219.300781 531.714844 219.34375 C 532.523438 219.410156 533.449219 218.832031 533.203125 218.152344 C 533.003906 217.605469 532.128906 217.445312 531.617188 217.9375 C 531.445312 218.097656 531.367188 218.289062 531.390625 218.464844 C 531.363281 218.429688 531.34375 218.394531 531.328125 218.371094 C 531.191406 218.101562 531.230469 217.777344 531.425781 217.554688 C 531.863281 217.058594 532.765625 216.925781 533.429688 217.050781 L 533.644531 217.089844 C 534.542969 217.25 536.046875 217.515625 536.1875 219.148438 C 536.214844 219.46875 536.023438 219.84375 535.640625 220.203125 C 535.085938 220.726562 534.265625 221.105469 533.496094 221.1875 C 531.382812 221.414062 528.984375 221.671875 526.945312 219.460938 C 526.253906 218.703125 526.316406 217.070312 526.851562 216.3125 C 527.144531 215.894531 527.621094 215.519531 528.308594 215.152344 C 530.753906 213.855469 533.96875 213.722656 535.949219 214.835938 C 536.601562 215.207031 537.136719 216.027344 537.707031 216.894531 C 538.378906 217.929688 539.148438 219.105469 540.3125 219.785156 C 541.226562 220.316406 542.425781 220.402344 543.363281 220.414062 C 543.394531 220.414062 543.429688 220.410156 543.457031 220.40625 C 543.636719 220.375 543.777344 220.253906 543.796875 220.109375 C 543.820312 219.9375 543.664062 219.796875 543.445312 219.792969 C 542.617188 219.78125 541.570312 219.714844 540.820312 219.277344 C 539.785156 218.667969 539.085938 217.605469 538.414062 216.578125 C 537.808594 215.644531 537.234375 214.769531 536.445312 214.324219 C 534.453125 213.203125 531.367188 213.195312 528.792969 214.242188 C 526.9375 214.628906 525.214844 216.53125 524.574219 217.773438 C 524.5 217.925781 524.421875 218.078125 524.34375 218.230469 C 523.804688 219.3125 523.25 220.429688 522.121094 221.097656 C 521.363281 221.550781 520.40625 221.746094 519.667969 221.859375 C 518.234375 222.085938 516.273438 222.171875 515.078125 221.300781 C 514.25 220.695312 513.933594 219.734375 513.65625 218.882812 C 513.542969 218.539062 513.414062 218.148438 513.53125 217.804688 C 513.542969 217.769531 513.554688 217.722656 513.570312 217.667969 C 513.71875 217.105469 514.113281 215.617188 517.480469 215.039062 C 518.34375 214.890625 520.03125 215.402344 520.65625 215.898438 C 521.167969 216.300781 521.152344 216.980469 521.09375 217.355469 C 520.96875 218.167969 520.507812 218.882812 519.828125 219.316406 C 519.082031 219.789062 518.039062 219.886719 517.402344 219.542969 C 517.078125 219.367188 516.871094 219.035156 516.859375 218.679688 C 516.855469 218.371094 516.984375 218.085938 517.246094 217.90625 C 517.859375 217.492188 518.257812 217.9375 518.316406 218.039062 C 518.246094 217.894531 517.859375 217.863281 517.65625 217.949219 C 517.460938 218.035156 517.363281 218.382812 517.457031 218.527344 C 517.710938 218.941406 518.773438 218.722656 519.027344 218.253906 C 519.199219 217.9375 519.152344 217.59375 518.898438 217.378906 C 518.347656 216.914062 517.4375 216.953125 516.734375 217.472656 C 516.300781 217.792969 516.058594 218.257812 516.070312 218.746094 C 516.085938 219.289062 516.402344 219.78125 516.917969 220.0625 C 517.839844 220.5625 519.261719 220.441406 520.292969 219.78125 C 521.152344 219.234375 521.726562 218.355469 521.875 217.371094 C 522 216.554688 521.480469 215.375 520.945312 214.953125 C 520.15625 214.328125 518.519531 214.085938 517.339844 214.210938 C 512.671875 214.707031 512.585938 217.691406 512.636719 217.957031 C 511.546875 216.871094 510.273438 216.136719 509.34375 215.703125 C 507.988281 215.070312 506.386719 214.867188 504.765625 214.875 C 503.363281 214.878906 501.804688 215.359375 500.667969 216.101562 C 499.339844 216.972656 498.753906 218.09375 498.242188 219.320312 C 497.855469 220.25 497.492188 221.125 496.742188 221.789062 C 495.09375 223.253906 493.320312 223.519531 492.117188 223.480469 C 489.957031 223.417969 488.222656 222.386719 487.519531 221.460938 C 487.007812 220.78125 486.375 219.757812 486.78125 218.761719 C 487.0625 218.0625 487.832031 217.445312 489.0625 216.925781 C 489.09375 216.914062 492.175781 215.636719 493.632812 217.679688 C 493.917969 218.082031 494.027344 218.820312 493.886719 219.394531 C 493.78125 219.808594 493.40625 220.15625 493.109375 220.378906 C 492.539062 220.800781 491.875 221.019531 491.328125 220.96875 C 491.023438 220.941406 490.730469 220.792969 490.5625 220.585938 C 490.433594 220.425781 490.394531 220.25 490.453125 220.089844 C 490.457031 220.09375 490.460938 220.09375 490.464844 220.097656 C 490.738281 220.335938 491.242188 220.550781 491.699219 220.476562 C 491.953125 220.429688 492.152344 220.296875 492.257812 220.101562 C 492.367188 219.914062 492.34375 219.695312 492.207031 219.5 C 491.976562 219.179688 491.503906 219.035156 490.960938 219.113281 C 490.949219 219.117188 490.933594 219.121094 490.917969 219.121094 C 490.332031 219.222656 489.84375 219.558594 489.695312 219.96875 C 489.574219 220.300781 489.644531 220.648438 489.886719 220.949219 C 490.167969 221.296875 490.644531 221.535156 491.160156 221.582031 C 491.960938 221.660156 492.859375 221.378906 493.625 220.808594 C 494.1875 220.390625 494.546875 219.925781 494.660156 219.460938 C 494.804688 218.867188 494.761719 217.953125 494.328125 217.34375 C 492.835938 215.246094 489.785156 215.941406 488.738281 216.386719 C 487.296875 216.996094 486.386719 217.75 486.03125 218.617188 C 485.621094 219.625 486.019531 220.582031 486.5 221.328125 C 485.789062 221.289062 485.015625 221.175781 484.425781 220.832031 C 483.390625 220.222656 482.691406 219.160156 482.019531 218.128906 C 481.414062 217.199219 480.839844 216.324219 480.050781 215.878906 C 478.058594 214.753906 474.972656 214.75 472.398438 215.792969 C 470.542969 216.179688 468.820312 218.082031 468.179688 219.328125 C 468.105469 219.476562 468.027344 219.628906 467.949219 219.785156 C 467.410156 220.867188 466.855469 221.984375 465.726562 222.652344 C 464.96875 223.101562 464.011719 223.296875 463.273438 223.410156 C 461.839844 223.640625 459.878906 223.726562 458.683594 222.855469 C 457.855469 222.25 457.539062 221.285156 457.261719 220.4375 C 457.148438 220.09375 457.019531 219.703125 457.136719 219.355469 C 457.148438 219.320312 457.160156 219.277344 457.179688 219.21875 C 457.328125 218.660156 457.71875 217.171875 461.085938 216.589844 C 461.949219 216.441406 463.636719 216.957031 464.261719 217.453125 C 464.773438 217.855469 464.757812 218.535156 464.699219 218.90625 C 464.574219 219.71875 464.113281 220.433594 463.433594 220.867188 C 462.691406 221.34375 461.648438 221.441406 461.011719 221.09375 C 460.683594 220.917969 460.476562 220.589844 460.464844 220.230469 C 460.460938 219.929688 460.589844 219.636719 460.851562 219.460938 C 461.464844 219.042969 461.863281 219.492188 461.921875 219.59375 C 461.851562 219.449219 461.464844 219.417969 461.265625 219.503906 C 461.066406 219.589844 460.96875 219.933594 461.0625 220.082031 C 461.316406 220.496094 462.378906 220.277344 462.632812 219.808594 C 462.804688 219.492188 462.761719 219.148438 462.503906 218.933594 C 461.953125 218.46875 461.042969 218.507812 460.339844 219.027344 C 459.90625 219.34375 459.664062 219.808594 459.679688 220.300781 C 459.695312 220.84375 460.007812 221.335938 460.523438 221.617188 C 461.445312 222.117188 462.867188 222 463.898438 221.335938 C 464.757812 220.785156 465.332031 219.910156 465.484375 218.925781 C 465.609375 218.105469 465.085938 216.929688 464.550781 216.507812 C 463.765625 215.882812 462.125 215.636719 460.945312 215.765625 C 456.277344 216.261719 456.191406 219.246094 456.242188 219.511719 C 455.152344 218.425781 453.878906 217.691406 452.949219 217.257812 C 451.59375 216.628906 449.992188 216.421875 448.371094 216.425781 C 446.96875 216.433594 445.410156 216.914062 444.273438 217.65625 C 442.945312 218.519531 442.359375 219.648438 441.847656 220.878906 C 441.460938 221.800781 441.097656 222.675781 440.347656 223.339844 C 438.699219 224.808594 436.925781 225.070312 435.722656 225.035156 C 433.5625 224.96875 431.828125 223.941406 431.128906 223.015625 C 430.613281 222.332031 429.980469 221.3125 430.386719 220.316406 C 430.671875 219.617188 431.4375 219 432.667969 218.480469 C 432.699219 218.464844 435.785156 217.191406 437.238281 219.234375 C 437.523438 219.636719 437.632812 220.371094 437.492188 220.945312 C 437.386719 221.359375 437.011719 221.710938 436.714844 221.929688 C 436.144531 222.351562 435.480469 222.574219 434.933594 222.523438 C 434.628906 222.492188 434.335938 222.347656 434.167969 222.140625 C 434.039062 221.980469 434 221.804688 434.058594 221.640625 C 434.0625 221.644531 434.066406 221.648438 434.070312 221.648438 C 434.347656 221.886719 434.847656 222.109375 435.304688 222.027344 C 435.558594 221.980469 435.757812 221.851562 435.863281 221.65625 C 435.972656 221.46875 435.949219 221.246094 435.8125 221.050781 C 435.582031 220.734375 435.109375 220.585938 434.570312 220.667969 C 434.554688 220.671875 434.539062 220.671875 434.523438 220.675781 C 433.9375 220.773438 433.449219 221.113281 433.300781 221.523438 C 433.179688 221.855469 433.25 222.203125 433.492188 222.503906 C 433.773438 222.851562 434.25 223.085938 434.769531 223.136719 C 435.566406 223.214844 436.464844 222.929688 437.230469 222.363281 C 437.792969 221.949219 438.152344 221.476562 438.265625 221.011719 C 438.410156 220.421875 438.367188 219.503906 437.933594 218.898438 C 436.441406 216.800781 433.390625 217.496094 432.34375 217.941406 C 430.902344 218.550781 429.992188 219.300781 429.636719 220.175781 C 429.132812 221.410156 429.851562 222.585938 430.4375 223.363281 C 431.257812 224.453125 433.179688 225.578125 435.625 225.652344 C 436.082031 225.667969 436.609375 225.644531 437.183594 225.546875 C 438.335938 225.347656 439.664062 224.84375 440.921875 223.726562 C 441.792969 222.953125 442.5625 221.511719 442.683594 221.257812 C 442.699219 221.613281 443.800781 224.390625 445.863281 224.972656 C 447.234375 225.359375 448.511719 225.304688 449.679688 225.105469 C 450.183594 225.019531 450.703125 224.875 451.273438 224.675781 C 452.105469 224.382812 453.066406 223.675781 453.34375 222.75 C 453.539062 222.082031 453.453125 221.039062 451.917969 219.875 C 450.507812 218.808594 448.753906 219.179688 447.5625 219.550781 C 446.804688 219.789062 445.894531 220.582031 445.855469 221.25 C 445.835938 221.621094 445.894531 222.28125 446.523438 222.527344 C 447.019531 222.71875 447.707031 222.578125 448.5625 222.105469 C 448.863281 221.941406 448.996094 221.621094 448.976562 221.386719 C 448.953125 221.167969 448.808594 221.007812 448.574219 220.941406 C 448.207031 220.839844 447.722656 221 447.089844 221.433594 C 446.917969 221.550781 446.890625 221.746094 447.023438 221.871094 C 447.089844 221.929688 447.179688 221.964844 447.273438 221.96875 C 447.125 222 447.007812 222 446.921875 221.96875 C 446.734375 221.894531 446.625 221.601562 446.644531 221.222656 C 446.667969 220.871094 447.277344 220.285156 447.796875 220.125 C 449.394531 219.625 450.488281 219.695312 451.34375 220.339844 C 452.367188 221.117188 452.792969 221.917969 452.574219 222.660156 C 452.367188 223.355469 451.636719 223.890625 451.003906 224.113281 C 449.324219 224.703125 448.160156 224.734375 446.386719 224.234375 C 444.6875 223.757812 444.308594 222.496094 443.875 221.03125 C 443.429688 219.539062 444.132812 217.964844 446.207031 217.414062 C 447.941406 216.953125 449.917969 217.199219 451.511719 217.660156 C 451.851562 217.757812 452.1875 217.867188 452.496094 218.015625 C 455.019531 219.214844 455.972656 221.832031 457.882812 223.566406 C 459.148438 224.714844 464.324219 225.160156 466.882812 223.050781 C 468.03125 222.101562 468.925781 220.179688 469.074219 219.96875 C 469.40625 223.21875 473.734375 223.816406 475.949219 223.632812 C 478.179688 223.441406 479.148438 222.777344 479.839844 222.125 C 480.359375 221.632812 480.621094 221.09375 480.582031 220.605469 C 480.40625 218.554688 478.433594 218.207031 477.484375 218.039062 L 477.28125 218 C 476.175781 217.789062 474.988281 218.113281 474.394531 218.785156 C 474.042969 219.191406 473.964844 219.742188 474.199219 220.195312 C 474.40625 220.597656 474.816406 220.855469 475.320312 220.894531 C 476.128906 220.964844 477.054688 220.386719 476.808594 219.703125 C 476.609375 219.15625 475.738281 219 475.222656 219.488281 C 475.050781 219.652344 474.972656 219.84375 474.996094 220.019531 C 474.96875 219.980469 474.949219 219.949219 474.933594 219.921875 C 474.796875 219.660156 474.835938 219.328125 475.03125 219.109375 C 475.46875 218.609375 476.371094 218.476562 477.035156 218.605469 L 477.25 218.640625 C 478.148438 218.800781 479.652344 219.066406 479.792969 220.699219 C 479.820312 221.019531 479.628906 221.398438 479.246094 221.757812 C 478.695312 222.28125 477.871094 222.65625 477.101562 222.742188 C 474.988281 222.96875 472.589844 223.226562 470.550781 221.011719 C 469.859375 220.261719 469.921875 218.625 470.457031 217.863281 C 470.753906 217.449219 471.226562 217.070312 471.914062 216.707031 C 474.359375 215.410156 477.574219 215.277344 479.554688 216.390625 C 480.207031 216.757812 480.742188 217.578125 481.3125 218.445312 C 481.984375 219.480469 482.753906 220.65625 483.921875 221.339844 C 484.832031 221.871094 486.03125 221.953125 486.96875 221.964844 C 487.847656 223.003906 489.691406 224.03125 492.019531 224.101562 C 492.476562 224.113281 493.003906 224.089844 493.574219 223.992188 C 494.730469 223.792969 496.058594 223.292969 497.316406 222.171875 C 498.1875 221.402344 498.957031 219.957031 499.078125 219.703125 C 499.09375 220.058594 500.195312 222.835938 502.253906 223.417969 C 503.628906 223.804688 504.90625 223.753906 506.070312 223.554688 C 506.574219 223.464844 507.097656 223.324219 507.664062 223.125 C 508.5 222.828125 509.460938 222.121094 509.738281 221.199219 C 509.933594 220.527344 509.847656 219.488281 508.3125 218.320312 C 506.902344 217.253906 505.148438 217.625 503.957031 218 C 503.199219 218.234375 502.289062 219.027344 502.25 219.695312 C 502.230469 220.066406 502.289062 220.730469 502.917969 220.972656 C 503.414062 221.167969 504.101562 221.027344 504.957031 220.550781 C 505.253906 220.386719 505.390625 220.066406 505.371094 219.835938 C 505.347656 219.617188 505.203125 219.453125 504.96875 219.386719 C 504.601562 219.285156 504.117188 219.449219 503.484375 219.882812 C 503.3125 219.996094 503.28125 220.195312 503.417969 220.320312 C 503.484375 220.378906 503.574219 220.410156 503.667969 220.414062 C 503.519531 220.449219 503.402344 220.449219 503.316406 220.414062 C 503.128906 220.339844 503.019531 220.046875 503.039062 219.671875 C 503.058594 219.316406 503.671875 218.734375 504.191406 218.574219 C 505.789062 218.074219 506.882812 218.140625 507.738281 218.785156 C 508.761719 219.5625 509.1875 220.363281 508.96875 221.105469 C 508.761719 221.804688 508.03125 222.339844 507.398438 222.5625 C 505.71875 223.152344 504.554688 223.183594 502.78125 222.683594 C 501.082031 222.203125 500.703125 220.941406 500.269531 219.480469 C 499.824219 217.988281 500.527344 216.410156 502.597656 215.859375 C 504.335938 215.398438 506.3125 215.644531 507.90625 216.105469 C 508.246094 216.203125 508.582031 216.3125 508.890625 216.460938 C 511.414062 217.664062 512.367188 220.277344 514.277344 222.011719 C 515.542969 223.164062 520.71875 223.609375 523.277344 221.496094 C 524.425781 220.546875 525.320312 218.628906 525.46875 218.417969 C 525.800781 221.667969 530.128906 222.265625 532.339844 222.078125 C 534.574219 221.890625 535.542969 221.226562 536.234375 220.574219 C 536.753906 220.078125 537.015625 219.539062 536.976562 219.054688 " fill-opacity="1" fill-rule="nonzero"/><path fill="#dcd2c9" d="M 584.847656 211.445312 C 582.992188 211.832031 581.269531 213.730469 580.632812 214.976562 C 580.558594 215.125 580.476562 215.277344 580.402344 215.433594 C 579.863281 216.515625 579.304688 217.632812 578.179688 218.300781 C 577.417969 218.75 576.460938 218.945312 575.722656 219.0625 C 574.292969 219.289062 572.332031 219.375 571.136719 218.503906 C 570.308594 217.898438 569.992188 216.9375 569.710938 216.085938 C 569.601562 215.742188 569.472656 215.351562 569.589844 215.007812 C 569.601562 214.972656 569.613281 214.925781 569.628906 214.867188 C 569.777344 214.308594 570.171875 212.816406 573.539062 212.242188 C 574.402344 212.09375 576.089844 212.605469 576.710938 213.097656 C 577.226562 213.503906 577.207031 214.183594 577.152344 214.554688 C 577.027344 215.367188 576.566406 216.085938 575.886719 216.519531 C 575.140625 216.992188 574.097656 217.089844 573.460938 216.746094 C 573.136719 216.566406 572.929688 216.238281 572.917969 215.882812 C 572.910156 215.574219 573.042969 215.285156 573.300781 215.109375 C 573.917969 214.695312 574.316406 215.140625 574.371094 215.242188 C 574.304688 215.09375 573.914062 215.066406 573.714844 215.152344 C 573.515625 215.238281 573.421875 215.582031 573.511719 215.730469 C 573.765625 216.140625 574.828125 215.925781 575.085938 215.457031 C 575.257812 215.140625 575.210938 214.796875 574.957031 214.582031 C 574.40625 214.117188 573.496094 214.15625 572.789062 214.675781 C 572.355469 214.992188 572.117188 215.457031 572.128906 215.945312 C 572.144531 216.492188 572.460938 216.984375 572.972656 217.261719 C 573.898438 217.765625 575.316406 217.644531 576.351562 216.984375 C 577.207031 216.4375 577.785156 215.558594 577.933594 214.574219 C 578.058594 213.753906 577.539062 212.578125 577.003906 212.15625 C 576.214844 211.53125 574.578125 211.289062 573.394531 211.414062 C 568.726562 211.910156 568.640625 214.894531 568.695312 215.160156 C 567.605469 214.074219 566.332031 213.339844 565.398438 212.90625 C 564.042969 212.273438 562.445312 212.070312 560.824219 212.078125 C 559.421875 212.082031 557.863281 212.5625 556.726562 213.304688 C 555.398438 214.171875 554.8125 215.296875 554.300781 216.523438 C 553.914062 217.453125 553.550781 218.324219 552.800781 218.988281 C 551.152344 220.457031 549.375 220.71875 548.175781 220.683594 C 546.015625 220.621094 544.277344 219.589844 543.578125 218.664062 C 543.066406 217.984375 542.429688 216.960938 542.835938 215.964844 C 543.121094 215.265625 543.890625 214.648438 545.121094 214.128906 C 545.152344 214.117188 548.234375 212.839844 549.691406 214.882812 C 549.976562 215.285156 550.082031 216.019531 549.941406 216.59375 C 549.839844 217.011719 549.464844 217.359375 549.167969 217.582031 C 548.597656 218.003906 547.933594 218.222656 547.382812 218.171875 C 547.082031 218.140625 546.785156 217.996094 546.621094 217.789062 C 546.492188 217.628906 546.453125 217.453125 546.511719 217.292969 C 546.515625 217.292969 546.519531 217.296875 546.523438 217.300781 C 546.796875 217.539062 547.300781 217.753906 547.753906 217.675781 C 548.011719 217.632812 548.210938 217.5 548.316406 217.304688 C 548.421875 217.113281 548.402344 216.894531 548.261719 216.703125 C 548.035156 216.382812 547.558594 216.234375 547.019531 216.316406 C 547.007812 216.320312 546.992188 216.320312 546.976562 216.324219 C 546.390625 216.425781 545.902344 216.761719 545.753906 217.171875 C 545.632812 217.503906 545.699219 217.851562 545.941406 218.152344 C 546.222656 218.5 546.699219 218.734375 547.21875 218.785156 C 548.019531 218.863281 548.917969 218.582031 549.683594 218.011719 C 550.242188 217.59375 550.601562 217.128906 550.71875 216.660156 C 550.863281 216.070312 550.820312 215.15625 550.386719 214.546875 C 548.894531 212.449219 545.84375 213.144531 544.792969 213.589844 C 543.355469 214.199219 542.441406 214.949219 542.089844 215.820312 C 541.582031 217.058594 542.304688 218.234375 542.890625 219.011719 C 543.710938 220.101562 545.632812 221.230469 548.078125 221.304688 C 548.53125 221.316406 549.0625 221.292969 549.632812 221.195312 C 550.785156 220.996094 552.117188 220.492188 553.375 219.375 C 554.242188 218.605469 555.015625 217.160156 555.132812 216.90625 C 555.152344 217.261719 556.253906 220.039062 558.3125 220.621094 C 559.683594 221.007812 560.964844 220.957031 562.128906 220.757812 C 562.632812 220.667969 563.15625 220.523438 563.722656 220.324219 C 564.554688 220.03125 565.519531 219.324219 565.792969 218.398438 C 565.992188 217.730469 565.90625 216.691406 564.367188 215.523438 C 562.957031 214.457031 561.207031 214.828125 560.011719 215.199219 C 559.257812 215.4375 558.347656 216.230469 558.308594 216.898438 C 558.289062 217.269531 558.347656 217.933594 558.976562 218.175781 C 559.472656 218.371094 560.15625 218.230469 561.015625 217.753906 C 561.3125 217.589844 561.445312 217.269531 561.429688 217.039062 C 561.40625 216.820312 561.261719 216.65625 561.027344 216.589844 C 560.660156 216.488281 560.171875 216.652344 559.539062 217.085938 C 559.367188 217.199219 559.339844 217.398438 559.476562 217.519531 C 559.539062 217.582031 559.632812 217.613281 559.726562 217.617188 C 559.578125 217.652344 559.460938 217.648438 559.375 217.617188 C 559.1875 217.542969 559.078125 217.25 559.097656 216.871094 C 559.117188 216.519531 559.730469 215.9375 560.246094 215.773438 C 561.847656 215.277344 562.941406 215.339844 563.796875 215.988281 C 564.820312 216.765625 565.246094 217.566406 565.023438 218.308594 C 564.820312 219.003906 564.089844 219.542969 563.453125 219.761719 C 561.777344 220.355469 560.609375 220.386719 558.839844 219.882812 C 557.136719 219.40625 556.761719 218.144531 556.328125 216.683594 C 555.882812 215.191406 556.582031 213.613281 558.65625 213.0625 C 560.394531 212.601562 562.371094 212.847656 563.960938 213.308594 C 564.304688 213.40625 564.640625 213.515625 564.949219 213.664062 C 567.472656 214.863281 568.425781 217.480469 570.332031 219.214844 C 571.601562 220.363281 576.777344 220.8125 579.335938 218.699219 C 580.484375 217.75 581.378906 215.832031 581.527344 215.617188 C 581.855469 218.867188 586.1875 219.46875 588.398438 219.28125 C 590.628906 219.089844 591.601562 218.429688 592.289062 217.773438 C 592.808594 217.28125 593.074219 216.742188 593.03125 216.257812 C 592.859375 214.203125 590.882812 213.855469 589.933594 213.6875 L 589.734375 213.652344 C 588.628906 213.4375 587.441406 213.761719 586.847656 214.4375 C 586.492188 214.835938 586.417969 215.390625 586.652344 215.847656 C 586.859375 216.25 587.269531 216.5 587.769531 216.542969 C 588.582031 216.613281 589.507812 216.035156 589.261719 215.355469 C 589.0625 214.804688 588.1875 214.648438 587.671875 215.140625 C 587.503906 215.300781 587.421875 215.492188 587.445312 215.667969 C 587.417969 215.632812 587.398438 215.597656 587.386719 215.570312 C 587.25 215.304688 587.289062 214.980469 587.484375 214.757812 C 587.921875 214.257812 588.824219 214.128906 589.488281 214.253906 L 589.699219 214.292969 C 590.601562 214.449219 592.105469 214.71875 592.246094 216.351562 C 592.273438 216.671875 592.078125 217.046875 591.699219 217.40625 C 591.144531 217.929688 590.324219 218.308594 589.554688 218.390625 C 587.441406 218.617188 585.042969 218.875 583.003906 216.660156 C 582.308594 215.90625 582.371094 214.273438 582.910156 213.511719 C 583.203125 213.097656 583.679688 212.71875 584.363281 212.355469 C 586.8125 211.054688 590.023438 210.925781 592.003906 212.039062 C 592.660156 212.40625 593.195312 213.230469 593.761719 214.097656 C 594.4375 215.132812 595.207031 216.304688 596.371094 216.988281 C 597.285156 217.519531 598.480469 217.601562 599.421875 217.617188 C 599.453125 217.617188 599.484375 217.613281 599.515625 217.605469 C 599.691406 217.578125 599.835938 217.457031 599.855469 217.308594 C 599.878906 217.140625 599.722656 217 599.503906 216.996094 C 598.675781 216.984375 597.625 216.917969 596.878906 216.480469 C 595.839844 215.871094 595.144531 214.808594 594.472656 213.777344 C 593.867188 212.847656 593.292969 211.972656 592.503906 211.527344 C 590.511719 210.40625 587.425781 210.398438 584.847656 211.445312 " fill-opacity="1" fill-rule="nonzero"/></svg>